<svg xmlns="http://www.w3.org/2000/svg" viewBox="0 0 165.521 105.965" fill="none">
  <rect width="165.521" height="105.965" rx="10" fill="#000"/>
  <path d="M43.523 35.218c-2.05 2.409-5.33 4.3-8.61 4.03-.409-3.28 1.195-6.77 3.08-8.93 2.05-2.49 5.6-4.3 8.49-4.43.34 3.42-1.0 6.74-2.96 9.33zm2.93 4.64c-4.77-.275-8.84 2.71-11.1 2.71-2.3 0-5.78-2.57-9.58-2.5-4.93.07-9.52 2.87-12.04 7.32-5.17 8.9-1.35 22.11 3.67 29.37 2.46 3.59 5.4 7.57 9.27 7.43 3.67-.14 5.1-2.37 9.55-2.37 4.44 0 5.71 2.37 9.58 2.3 4-.07 6.52-3.59 8.98-7.19 2.78-4.09 3.94-8.04 4.01-8.25-.09-.07-7.71-2.96-7.78-11.78-.07-7.36 6.02-10.9 6.29-11.08-3.46-5.1-8.82-5.65-10.82-5.72zm27.74-10.02v54.47h8.46V67.5h11.7c10.68 0 18.18-7.32 18.18-17.84 0-10.52-7.36-17.8-17.9-17.8H74.18zm8.46 7.12h9.76c7.32 0 11.5 3.9 11.5 10.72 0 6.82-4.18 10.75-11.54 10.75h-9.72V36.98zm47.31 47.84c5.3 0 10.22-2.68 12.45-6.93h.17v6.52h7.83V55.73c0-7.87-6.29-12.93-15.95-12.93-8.98 0-15.61 5.13-15.88 12.17h7.63c.61-3.35 3.73-5.55 7.97-5.55 5.14 0 8.02 2.41 8.02 6.85v3l-10.49.61c-9.76.58-15.06 4.57-15.06 11.51 0 6.99 5.44 11.43 13.31 11.43zm2.27-6.58c-4.47 0-7.33-2.14-7.33-5.41 0-3.38 2.75-5.35 8.0-5.65l9.32-.58v3.1c0 4.97-4.24 8.54-10 8.54zm36.78 21.16c8.25 0 12.14-3.14 15.54-12.65l14.89-41.72h-8.63l-9.98 32.32h-.17l-9.98-32.32h-8.9l14.44 39.96-.78 2.44c-1.3 4.1-3.4 5.69-7.16 5.69-.67 0-1.97-.07-2.5-.14v6.59c.54.14 2.77.2 3.23.2v.03z" fill="white"/>
</svg>
