<svg xmlns="http://www.w3.org/2000/svg" viewBox="0 0 780 500" fill="none">
  <rect width="780" height="500" rx="40" fill="#1A1F71"/>
  <path d="M293 347.5L325.7 152.5H377.8L345 347.5H293Z" fill="white"/>
  <path d="M524.8 157.4C514.7 153.5 498.8 149.3 479.3 149.3C427.5 149.3 391.3 176.1 391 214.4C390.8 242.8 417.2 258.8 437.1 268.4C457.5 278.2 464.3 284.5 464.2 293.1C464.1 306.1 448.1 312.3 433.2 312.3C412.4 312.3 401.3 309.5 384.3 302.1L377.6 298.9L370.3 343.2C382.3 348.5 404.7 353.2 427.9 353.4C483.1 353.4 518.7 326.9 519.1 286C519.3 263.6 505.4 246.7 475.4 232.5C456.9 223.2 445.7 216.9 445.8 207.7C445.9 199.7 455.2 191.2 475.5 191.2C492.6 190.9 505 194.7 514.5 198.7L519 200.8L526.1 157.4H524.8Z" fill="white"/>
  <path d="M627.1 152.5H586.3C573.7 152.5 564.3 156 559 168.7L484.3 347.5H539.5L550.9 317H617.5L624 347.5H672.5L627.1 152.5ZM566.2 278.2C570.2 267.8 587.2 222.9 587.2 222.9C587 223.2 591.2 212.1 593.7 205.1L596.9 221.3C596.9 221.3 606.6 266 608.7 278.2H566.2Z" fill="white"/>
  <path d="M243.7 152.5L192.5 283.8L187 257.5C177.3 226.1 147.4 192.1 114 174.8L160.9 347.2H216.5L299.4 152.5H243.7Z" fill="white"/>
  <path d="M143.7 152.5H57.8L57 156.6C122.2 172.3 166 208.4 184 252.2L165.7 169.1C162.3 156.8 152.9 153 141.5 152.5H143.7Z" fill="#FAA61A"/>
</svg>
