<?xml version="1.0" encoding="UTF-8"?>
<svg xmlns="http://www.w3.org/2000/svg" viewBox="0 0 120 40">
  <defs>
    <style>
      .cls-1 {
        fill: #003781;
      }

      .cls-2 {
        fill: #fff;
      }
    </style>
  </defs>
  <rect class="cls-2" width="120" height="40"/>
  <g id="Calque_1" data-name="Calque 1">
    <path class="cls-1" d="M11.98,20.85h-3.97l2.12-6.9,1.86,6.9ZM5.95,28.45l1.36-4.55h5.35l1.27,4.54h4.95l-4.92-17.29c-.29-1.02-.9-1.49-1.98-1.49h-7.02v1.63h.58c.73,0,1.13.29,1.13.85,0,.37-.08.68-.37,1.52L1.38,28.45h4.57Z"/>
    <path class="cls-1" d="M24.6,28.45V11.1c0-.91-.53-1.44-1.41-1.44h-4.35v1.63h.29c.73,0,1.04.31,1.04,1.05v16.11h4.42Z"/>
    <path class="cls-1" d="M32.12,28.45V11.1c0-.91-.54-1.44-1.41-1.44h-4.34v1.63h.29c.73,0,1.05.31,1.05,1.05v16.11h4.41Z"/>
    <path class="cls-1" d="M39.84,11.37c0-1.26-.93-2.04-2.54-2.04s-2.54.76-2.54,2.04.96,2.04,2.54,2.04,2.54-.76,2.54-2.04M39.76,28.45v-12.65c0-.9-.54-1.44-1.41-1.44h-4.28v1.6h.25c.73,0,1.04.34,1.04,1.07v11.41h4.4Z"/>
    <path class="cls-1" d="M49.45,21.69v2.74c-.74.76-1.63,1.23-2.39,1.23s-1.07-.39-1.07-1.46.22-1.52,1.01-1.82c.79-.32,1.61-.55,2.45-.69M43.5,18.4c1.35-.67,2.83-1.05,4.34-1.1,1.19,0,1.61.42,1.61,1.65v.31c-1.8.29-2.37.4-3.38.63-.57.13-1.13.3-1.67.52-1.78.71-2.62,2.09-2.62,4.2,0,2.68,1.16,3.97,3.55,3.97.81,0,1.62-.15,2.37-.45.68-.31,1.32-.72,1.89-1.21v.2c0,.87.45,1.32,1.32,1.32h4.03v-1.5h-.2c-.76,0-1.04-.34-1.04-1.24v-6.71c0-3.58-1.24-4.82-4.83-4.82-1.14,0-2.27.14-3.37.4-1.04.23-2.05.61-2.99,1.13l.98,2.71Z"/>
    <path class="cls-1" d="M61.36,28.45v-9.52c.74-.82,1.49-1.19,2.37-1.19.93,0,1.16.37,1.16,1.79v8.93h4.4v-9.58c0-2.23-.16-2.93-.87-3.69-.58-.65-1.49-.99-2.65-.99-1.72,0-2.93.53-4.56,2.06v-.56c0-.87-.46-1.32-1.36-1.32h-4.18v1.6h.25c.73,0,1.05.34,1.05,1.07v11.41h4.4Z"/>
    <path class="cls-1" d="M82.32,25.5h-6.13l5.87-8.22v-2.91h-9.2c-1.04,0-1.52.48-1.52,1.52v2.56h1.63v-.25c0-.65.34-.96,1.04-.96h3.16l-5.93,8.32v2.91h11.06l.02-2.97Z"/>
    <path class="cls-1" d="M105.4,28.1v-15.93c0-1.27-.45-1.7-1.68-1.7h-3.73v1.79h.22c.85,0,1.02.19,1.02,1.22v14.62h4.17ZM107.24,28.1h4.14v-12.4c0-1.25-.48-1.69-1.69-1.69h-2.45v14.1ZM99.4,28.1v-14.09h-2.45c-1.21,0-1.69.45-1.69,1.69v12.39h4.14ZM115.3,20c0,7.02-5.05,12.12-11.98,12.12s-11.99-5.1-11.99-12.12,5.06-12.12,11.99-12.12,11.98,5.13,11.98,12.12M117.75,20c0-8.25-6.17-14.43-14.43-14.43s-14.44,6.18-14.44,14.43,6.17,14.43,14.44,14.43,14.43-6.16,14.43-14.43"/>
  </g>
</svg>