<?xml version="1.0" encoding="UTF-8"?>
<svg xmlns="http://www.w3.org/2000/svg" viewBox="0 0 120 40">
  <defs>
    <style>
      .cls-1 {
        fill: #fff;
      }

      .cls-2 {
        fill: #ff1721;
      }

      .cls-3 {
        fill: #00008f;
      }
    </style>
  </defs>
  <rect class="cls-1" width="120" height="40"/>
  <g id="Calque_1" data-name="Calque 1">
    <rect class="cls-3" width="120" height="40"/>
    <path class="cls-3" d="M49.79,13.6c.24.96,1.61,5.21,1.61,5.21h-7.12s4.51-5.47,5.27-7.12c.08-.18.1-.04.1.05-.04.63.01,1.25.14,1.86Z"/>
    <path class="cls-3" d="M60.96,22.06s1.09,3.35,1.28,3.55l-1.96,2.69-1.22-3.78,1.9-2.47Z"/>
    <path class="cls-3" d="M78.79,18.81h-7.14s4.51-5.47,5.27-7.12c.08-.18.1-.04.1.05-.04.63.01,1.25.14,1.86.24.96,1.62,5.21,1.62,5.21Z"/>
    <polygon class="cls-2" points="77.76 0 74.54 4.18 70.45 4.18 73.68 0 77.76 0"/>
    <path class="cls-1" d="M84.84,19.89l-3.26-11.29c-.16-.43-.28-1.99-.28-1.99h-5.21c-.28.74-.76,1.42-1.07,2.03-.4.74-7.02,9.41-8.47,11.25-.21.28-.34.43-.34.43,0-.03-.05-.19-.11-.43-.24-.83-.73-2.5-.73-2.5,0,0,5.64-7.16,6.22-7.89,1.71-2.16,2.68-2.88,2.68-2.88h-5.34c-.04.58-.23,1.15-.54,1.64-.25.39-4.62,5.86-4.62,5.86,0,0-1.37-4.96-1.64-5.75-.15-.57-.23-1.16-.2-1.75h-6.41c.24.28.98,2.1.98,2.1l3.16,9.72-1.85,2.37c-.08-.11-3.42-11.07-3.56-11.53-.16-.52-.33-2.66-.33-2.66h-5.49s-1.06,2.32-1.8,3.4c-.3.44-3.78,5.1-7.49,9.88-4.12,5.5-8.61,11.06-8.7,11.14-.05.04-.09.08-.13.11v2h3.15c.04-.26,1.8-2.79,2.04-3.05.24-.24,6.28-8.18,6.28-8.18h10.61l1.25,4.29s-3.1,4.04-3.93,5.02c-.5.58-1.91,1.91-1.91,1.91h5s.16-.4.57-1.15c.4-.74,1.81-2.45,1.81-2.45,0,0,.62,1.91.67,2.24.06.4.24,1.36.24,1.36h5.03s.18-.38.58-1.12c.4-.74,1.86-2.34,1.86-2.34,0,0,.57,1.77.62,2.1.06.4.23,1.36.23,1.36h6.44s-.96-1.66-1.18-2.23c-.13-.3-2.14-6.62-2.14-6.62l1.67-2.38h10.68s2.44,7.83,2.73,8.86c.19.78.29,1.57.31,2.37h6.72c-1.02-.72-3.57-9.77-4.82-13.25ZM44.28,18.81s4.51-5.47,5.27-7.12c.08-.18.1-.04.1.05-.04.63.01,1.25.14,1.86.24.96,1.61,5.21,1.61,5.21h-7.12ZM60.28,28.3l-1.22-3.78,1.9-2.47s1.09,3.35,1.28,3.55l-1.96,2.69ZM71.65,18.81s4.51-5.47,5.27-7.12c.08-.18.1-.04.1.05-.04.63.01,1.25.14,1.86.24.96,1.62,5.21,1.62,5.21h-7.14Z"/>
    <path class="cls-3" d="M49.79,13.6c.24.96,1.61,5.21,1.61,5.21h-7.12s4.51-5.47,5.27-7.12c.08-.18.1-.04.1.05-.04.63.01,1.25.14,1.86Z"/>
    <path class="cls-3" d="M60.96,22.06s1.09,3.35,1.28,3.55l-1.96,2.69-1.22-3.78,1.9-2.47Z"/>
    <path class="cls-3" d="M78.79,18.81h-7.14s4.51-5.47,5.27-7.12c.08-.18.1-.04.1.05-.04.63.01,1.25.14,1.86.24.96,1.62,5.21,1.62,5.21Z"/>
  </g>
</svg>