<?xml version="1.0" encoding="UTF-8"?>
<svg xmlns="http://www.w3.org/2000/svg" viewBox="0 0 200 80">
  <defs>
    <style>
      .cls-1 {
        fill: #fff;
      }

      .cls-2 {
        fill: #014289;
      }
    </style>
  </defs>
  <rect class="cls-1" width="200" height="80"/>
  <g id="Calque_1" data-name="Calque 1">
    <rect class="cls-2" width="200" height="80"/>
    <path class="cls-1" d="M135.84,17.06V6.43s-9.78,0-9.78,0v8.26s-3.09,0-3.09,0V6.44s-10.3-.01-10.3-.01v13.98s-3.13,0-3.13,0V3.27s29.33,0,29.33,0v14.75s-3.64,5.49-3.64,5.49l5.69,30.54h-36.56s-.02-18.41-.02-18.41c-.23-2.49-1.86-4.27-4.34-4.25-1.85-.25-3.51.64-4.35,2.3-.46.98-.72,1.99-.8,3.12v17.42s-36.19,0-36.19,0l5.69-30.45-4.07-5.54V3.26s29.42,0,29.42,0v17.14s-3.04,0-3.04,0V6.44s-10.21,0-10.21,0v8.25s-3.04.02-3.04.02V6.44s-10.04,0-10.04,0v10.89s4.3,5.84,4.3,5.84l-5.28,28.14h29.34s0-15.01,0-15.01c.13-1.6.58-3.05,1.36-4.39,1.45-2.51,4.04-3.74,6.93-3.53,1.87.14,3.64.61,4.99,1.93,1.53,1.44,2.19,3.37,2.38,5.5v15.21s29.73,0,29.73,0l-5.2-28.07,3.91-5.87Z"/>
    <path class="cls-1" d="M66.53,68.76c1.1.21,2.2.4,2.93,1.3,1.14,1.41,1.06,3.64-.33,4.86-.99.87-2.37,1.35-3.71,1.36l-6.63.05v-14.32s7.11,0,7.11,0c1.14,0,2.37.41,3.16,1.17.95.92.97,2.33.47,3.57-.43,1.06-1.63,1.57-3,2ZM65.05,68.14c1.13-.36,1.56-1.45,1.59-2.48s-.61-1.97-1.7-2.1c-.79-.09-1.56-.06-2.47.02v4.66c.91.1,1.76.16,2.58-.1ZM66.8,72.49c0-.85-.29-1.76-1.12-2.22-.97-.54-2.12-.59-3.22-.47v5.48c2.11.38,4.34-.83,4.34-2.78Z"/>
    <path class="cls-1" d="M140.69,72.03c-1.13,2.51-3.48,4.19-6.24,4.21l-6.58.05v-14.31s7.73.05,7.73.05c2.54.02,4.56,1.73,5.31,4.05.58,1.98.54,3.94-.23,5.94ZM137.49,66.37c-.77-3.17-3.68-3.28-6.49-3.11v11.72c1.05.04,1.97.05,2.92-.08,3.92-.52,4.29-5.58,3.57-8.54Z"/>
    <path class="cls-1" d="M75.81,68.89c1.06-.03,2.06-.2,2.76-.87.74-.71.79-1.7.69-2.67-.23-2.21-2.24-2.12-4.13-2.04v13s-3.26,0-3.26,0v-14.33c2.51-.03,4.89-.04,7.38.09,1.92.1,3.34,1.68,3.2,3.56.08,1.95-1.23,3.27-3.11,3.63l4.51,7.03h-3.94s-4.11-7.42-4.11-7.42Z"/>
    <path class="cls-1" d="M119,68.9c1.07-.08,2-.21,2.69-.81.76-.67.84-1.65.78-2.6-.08-1.14-.76-2.05-1.96-2.14-.72-.06-1.47-.06-2.25-.05v13s-3.24.02-3.24.02v-14.32s7.11.04,7.11.04c2.09.01,3.57,1.54,3.53,3.61-.04,1.9-1.17,3.26-3.14,3.62,1.51,2.55,2.84,4.74,4.53,7.03h-3.95s-4.1-7.41-4.1-7.41Z"/>
    <path class="cls-1" d="M108.92,72.12l-4.85-.02-1.49,4.29-1.94-.08,5.87-14.28c.59-.04,1.11-.04,1.68.02l5.74,14.32-3.61.03-1.4-4.27ZM108.35,70.77l-1.79-4.69-1.9,4.69h3.7Z"/>
    <path class="cls-1" d="M94.72,74.9c2,1.01,4.08.53,5.85-.8.11.77-.25,2.02-1.43,2.31-1.79.45-3.69.44-5.44-.06-3.5-.99-5.29-4.14-4.97-7.67s2.35-6.02,5.73-6.74c2.31-.49,4.6-.23,6.85.83l-.52,2.36c-1.09-.98-1.88-1.8-3.19-1.95-2.31-.27-4.43,1.19-5.08,3.42-.78,2.66-.54,6.9,2.22,8.3Z"/>
    <polygon class="cls-1" points="87.83 76.29 84.37 76.33 84.36 61.99 87.82 61.97 87.83 76.29"/>
    <polygon class="cls-1" points="102.43 22.02 97.2 22.07 97.2 14.54 102.42 14.54 102.43 22.02"/>
  </g>
</svg>