<?xml version="1.0" encoding="UTF-8"?>
<svg xmlns="http://www.w3.org/2000/svg" viewBox="0 0 120 40">
  <defs>
    <style>
      .cls-1 {
        fill: #fff;
      }

      .cls-2 {
        fill: #0a6e46;
      }
    </style>
  </defs>
  <rect class="cls-1" width="120" height="40"/>
  <g id="Calque_1" data-name="Calque 1">
    <path class="cls-2" d="M12.7,17.95l1.33,2.77h2.43c-.05,1.93-2.1,3.04-3.89,3.04-2.85.02-5.27-2.43-5.26-5.28.01-3.6,2.93-5.21,5.14-5.21,1.6,0,3,.77,4.14,1.89l1.94-2.04c-1.39-1.79-3.79-2.73-6.06-2.73-4.87,0-8.3,3.62-8.31,8.08,0,3.55,2.5,8.16,8.27,8.15,2.96,0,7.2-1.96,7.17-6.99,0-.14-.03-1.23-.13-1.7h-6.79.01ZM29.11,14.44c-.95-.36-2.11-.3-3.04.2-.69.36-1.33.93-1.76,1.61l-.02-1.79h-2.89v11.95h2.95v-6.37c0-.76.26-1.43.77-1.94,1.26-1.28,2.85-.65,3.26-.42l.78-3.2-.07-.03h0s0,0,0,0ZM35.25,14.21c-4.24,0-6.24,3.28-6.24,6.21,0,3.18,2.23,6.21,6.24,6.21,3.68,0,6.24-2.67,6.24-6.21,0-3.35-2.28-6.21-6.24-6.21ZM35.25,24.02c-1.93,0-3.26-1.72-3.26-3.6s1.32-3.6,3.26-3.6,3.26,1.71,3.26,3.6-1.33,3.6-3.26,3.6ZM51.01,21.61c.04,1.42-1.16,2.55-2.57,2.5-1.59.04-2.45-1.03-2.39-2.89v-6.78h-2.93v7.35c.01,4.86,4.02,5.39,6.12,4.42.72-.33,1.34-.78,1.82-1.4l.03,1.57h2.86v-11.95h-2.93v7.17s-.01,0-.01,0ZM62.97,14.26c-1.34,0-2.77.6-3.64,1.57l-.02-1.37h-2.89v15.95h2.95v-5.27c.91.9,2.32,1.47,3.64,1.47,3.28,0,5.5-3.01,5.46-6.19-.04-3.81-2.12-6.15-5.5-6.17h0s0,0,0,0ZM62.46,24c-1.95,0-3.19-1.7-3.19-3.57s1.24-3.56,3.19-3.55c1.94,0,3.15,1.68,3.15,3.55s-1.22,3.57-3.15,3.57ZM78.74,15.94c-.86-1.14-2.2-1.74-3.67-1.72-3.31-.06-5.6,2.99-5.53,6.19-.07,3.1,2.11,6.25,5.35,6.23,1.46,0,2.87-.65,3.82-1.72v1.5h2.98v-11.95h-2.95v1.47h0ZM75.66,24.02c-1.97,0-3.13-1.74-3.13-3.62s1.18-3.58,3.13-3.57c1.95,0,3.17,1.7,3.17,3.57s-1.2,3.62-3.17,3.62ZM98.08,14.26c-1.56,0-3.16.89-4.01,2.2-.57-1.51-1.95-2.22-3.55-2.2-1.33.02-2.68.68-3.5,1.72l-.03-1.52h-2.89v11.95h2.95v-7.15c-.03-1.39,1.23-2.39,2.57-2.39,1.42,0,2.05,1.17,2.01,2.5v7.04h2.95v-7.13c-.03-1.39,1.24-2.45,2.59-2.41,1.5-.06,2.11,1.12,2.05,2.53v7.01h2.95v-7.19c-.05-4.3-2.3-4.97-4.12-4.96h.03,0ZM112.9,14.46v1.47c-.86-1.14-2.2-1.74-3.67-1.72-3.31-.06-5.6,2.99-5.53,6.19-.07,3.1,2.11,6.25,5.35,6.23,1.46,0,2.87-.65,3.82-1.72v1.5h2.98v-11.95h-2.95,0ZM109.81,24.02c-1.97,0-3.13-1.74-3.13-3.62s1.18-3.58,3.13-3.57c1.95,0,3.17,1.7,3.17,3.57s-1.2,3.62-3.17,3.62Z"/>
  </g>
</svg>