<?xml version="1.0" encoding="UTF-8"?>
<svg xmlns="http://www.w3.org/2000/svg" viewBox="0 0 120 40">
  <defs>
    <style>
      .cls-1 {
        fill: #fff;
      }

      .cls-2 {
        fill: #29377e;
      }

      .cls-3 {
        fill: #cbdb16;
      }
    </style>
  </defs>
  <rect class="cls-1" width="120" height="40"/>
  <g id="Calque_1" data-name="Calque 1">
    <rect class="cls-2" width="120" height="40"/>
    <g id="g18">
      <path id="path1264" class="cls-2" d="M80.37,2.64v34.73c-6.49,1.72-13.32,2.63-20.37,2.63s-13.87-.91-20.37-2.63V2.64c6.49-1.72,13.32-2.64,20.37-2.64s13.87.92,20.37,2.64"/>
      <g id="g1695">
        <path id="path1268" class="cls-3" d="M64.23,14.24c0,2.22-1.83,4.02-4.09,4.02s-4.09-1.8-4.09-4.02,1.83-4.02,4.09-4.02,4.09,1.8,4.09,4.02"/>
        <path id="path1272" class="cls-3" d="M69.26,14.24h-2.51c-.22.03-.4.19-.45.4-.21,3.16-2.89,5.66-6.16,5.66s-6.18-2.71-6.18-6.07c0-3.17,2.48-5.78,5.65-6.04h0c.29,0,.53-.25.53-.54v-2.28c0-.29-.24-.52-.53-.52h0c-5.04.26-9.04,4.37-9.04,9.38s4.29,9.4,9.58,9.4,9.29-3.94,9.56-8.9c0-.25-.2-.46-.44-.5"/>
      </g>
      <g id="g1702">
        <path id="path1276" class="cls-1" d="M50.07,31.81c0-.39,0-.86.01-1.28h-.01c-.2.24-.43.47-.76.77l-.99.95h-.09l-.98-.95c-.32-.3-.56-.53-.75-.77h-.03c.01.42.03.9.03,1.28v2.4h-1.75v-7.32h.23l1.94,1.72c.3.27.95.88,1.41,1.38h.03c.43-.46,1.11-1.11,1.42-1.38l1.87-1.72h.23v7.32h-1.81v-2.4Z"/>
        <path id="path1280" class="cls-1" d="M55.43,31.86h1.68l-.09-.17c-.22-.45-.48-1.01-.75-1.72h-.01c-.27.71-.53,1.27-.75,1.72l-.09.17ZM57.78,33.26h-3.04l-.47.96h-1.95l3.79-7.32h.38l3.78,7.32h-2.01l-.48-.96Z"/>
        <path id="path1284" class="cls-1" d="M66.58,33.49c-.68.58-1.51.93-2.53.93-2.28,0-3.77-1.64-3.77-3.77,0-2.27,1.61-3.76,3.69-3.76,1.1,0,1.94.37,2.6.94l-1,1.25c-.38-.35-.87-.59-1.5-.59-1.19,0-1.91.92-1.91,2.16s.72,2.16,1.95,2.16c.6,0,1.1-.2,1.49-.57l.99,1.24Z"/>
        <path id="path1286" class="cls-1" d="M67.47,34.21h1.81v-7.1h-1.81v7.1Z"/>
        <path id="path1290" class="cls-1" d="M72.61,28.71v1.67h2.76v1.5h-2.76v2.33h-1.81v-7.1h5.34l-.36,1.6h-3.18Z"/>
      </g>
    </g>
  </g>
</svg>