<?xml version="1.0" encoding="UTF-8"?>
<svg xmlns="http://www.w3.org/2000/svg" viewBox="0 0 120 40">
  <defs>
    <style>
      .cls-1 {
        fill: #f42a5f;
      }

      .cls-2 {
        fill: #fcba00;
      }

      .cls-3 {
        fill: #000069;
      }

      .cls-4 {
        fill: #fff;
      }

      .cls-5 {
        fill: #0dd3b6;
      }

      .cls-6 {
        fill: #0391df;
      }

      .cls-7 {
        fill: #6a2dc1;
      }
    </style>
  </defs>
  <rect class="cls-4" width="120" height="40"/>
  <g id="Calque_1" data-name="Calque 1">
    <path class="cls-3" d="M36.1,15.21h-2.59c-.17,0-.28.11-.28.28v2c0,.14-.2.23-.28.03-.79-1.74-1.89-2.59-3.52-2.59-2.9,0-5.26,2.59-5.26,6.67s2.36,6.75,5.15,6.75c1.52,0,2.59-.68,3.63-2.59.08-.17.28-.14.28.03v2c0,.17.11.28.28.28h2.59c.17,0,.28-.11.28-.28v-12.29c0-.17-.11-.28-.28-.28ZM33.23,21.88c0,3.1-1.41,4.36-2.9,4.36-1.66,0-2.98-1.58-2.98-4.64,0-2.82,1.32-4.56,2.98-4.56,1.49,0,2.9,1.41,2.9,4.33v.51Z"/>
    <path class="cls-3" d="M47.36,24.41c-.56,1.21-1.32,1.83-2.28,1.83s-1.52-.59-1.52-1.94v-7.34h3.77c.17,0,.28-.11.28-.28v-1.18c0-.17-.11-.28-.28-.28h-3.77v-3.24c0-.23-.11-.37-.39-.31l-2.34.39c-.17.03-.28.11-.28.31v2.84h-2.14c-.17,0-.28.11-.28.28v1.18c0,.17.11.28.28.28h2v7.09c0,2.98,1.77,4.31,3.74,4.31s3.21-1.29,4-3.66c.14-.42-.59-.7-.79-.28"/>
    <path class="cls-3" d="M18.37,14.93c-1.86,0-3.29,1.27-4.31,3.18-.08.17-.28.17-.31-.03-.28-1.89-1.43-3.15-3.24-3.15s-3.1,1.29-4.11,3.07c-.11.2-.31.14-.31-.03v-2.48c0-.17-.11-.28-.28-.28h-2.45c-.17,0-.28.11-.28.28v12.3c0,.17.11.28.28.28h2.59c.17,0,.28-.11.28-.28v-5.35c0-3.6,1.69-5.4,3.04-5.4,1.01,0,1.58.65,1.58,2.19v8.56c0,.17.11.28.28.28h2.59c.17,0,.28-.11.28-.28v-5.35c0-3.6,1.69-5.4,3.04-5.4,1.01,0,1.58.65,1.58,2.19v8.56c0,.17.11.28.28.28h2.59c.17,0,.28-.11.28-.28v-9.06c0-2.39-1.46-3.8-3.41-3.8Z"/>
    <path class="cls-3" d="M92.81,24.41c-.56,1.21-1.32,1.83-2.28,1.83s-1.52-.59-1.52-1.94v-7.34h3.77c.17,0,.28-.11.28-.28v-1.18c0-.17-.11-.28-.28-.28h-3.77v-3.24c0-.23-.11-.37-.39-.31l-2.34.39c-.17.03-.28.11-.28.31v2.84h-2.14c-.17,0-.28.11-.28.28v1.18c0,.17.11.28.28.28h2v7.09c0,2.98,1.77,4.31,3.74,4.31s3.21-1.29,4-3.66c.14-.42-.59-.7-.79-.28"/>
    <path class="cls-3" d="M81.72,15.21h-2.59c-.17,0-.28.11-.28.28v5.35c0,3.6-1.69,5.4-3.04,5.4-1.01,0-1.58-.65-1.58-2.2v-8.55c0-.17-.11-.28-.28-.28h-2.59c-.17,0-.28.11-.28.28v9.34c0,2.14,1.49,3.52,3.49,3.52,1.77,0,3.07-1.21,4.08-3.12.08-.17.31-.14.31.06v2.51c0,.17.11.28.28.28h2.48c.17,0,.28-.11.28-.28v-12.3c0-.17-.11-.28-.28-.28Z"/>
    <path class="cls-3" d="M64.92,14.93c-1.86,0-3.29,1.27-4.31,3.18-.08.17-.28.17-.31-.03-.28-1.89-1.43-3.15-3.24-3.15s-3.1,1.29-4.11,3.07c-.11.2-.31.14-.31-.03v-2.48c0-.17-.11-.28-.28-.28h-2.45c-.17,0-.28.11-.28.28v12.3c0,.17.11.28.28.28h2.59c.17,0,.28-.11.28-.28v-5.35c0-3.6,1.69-5.4,3.04-5.4,1.01,0,1.58.65,1.58,2.19v8.56c0,.17.11.28.28.28h2.59c.17,0,.28-.11.28-.28v-5.35c0-3.6,1.69-5.4,3.04-5.4,1.01,0,1.58.65,1.58,2.19v8.56c0,.17.11.28.28.28h2.59c.17,0,.28-.11.28-.28v-9.06c0-2.39-1.46-3.8-3.41-3.8"/>
    <path class="cls-6" d="M103.98,10.75c-.11,2.42-.83,3.71-4.36,4.33-.11.03-.16.11-.16.19s.03.16.21.21c1.02.35,2.16.56,3.15.56,4.05,0,6.08-2.31,6.08-6,0-.11-.05-.19-.19-.19-2.12,0-4.09.43-4.55.65-.11.05-.19.08-.19.24Z"/>
    <path class="cls-5" d="M116.97,18.41c0-.55-.09-2.5-.75-3.93-.05-.11-.11-.13-.19-.13-.05,0-.13.03-.22.05-.51.16-1.5.22-1.99.22-1.96,0-3.36-.74-4.01-2.45-.05-.11-.11-.13-.16-.13-.08,0-.16.05-.19.16-.08.38-.11.75-.11,1.1,0,3.62,2.15,5.57,5.41,5.57.59,0,1.58-.11,2.07-.27.08-.03.13-.11.13-.19"/>
    <path class="cls-2" d="M96.18,20.16c3.85.21,4.81,1.94,4.89,4.73,0,.13.08.22.19.22s.16-.05.22-.13c.95-1.4,1.34-2.72,1.34-4.01,0-2.69-2.59-5.22-6.29-5.41-.13,0-.21.05-.27.19-.46,1.23-.52,3.58-.35,4.22.03.11.11.19.27.19Z"/>
    <path class="cls-7" d="M104.2,30.06c1.16-2.02,2.64-2.98,4.33-2.98.75,0,1.29.18,1.77.4.11.05.27-.08.19-.24-1-2.03-2.88-3.01-4.79-3.01-1.8,0-3.86,1.01-5.27,3.15-.05.08-.08.13-.08.22s.03.13.11.22c1.29,1.29,2.99,2.12,3.47,2.31.08.03.11.03.13.03.05,0,.11-.03.13-.08Z"/>
    <path class="cls-1" d="M115.28,19.84c0-.08-.11-.22-.3-.13-3.07,1-4.25,3.13-4.25,5.14,0,1.27.73,2.66,1.96,3.9.08.08.13.11.22.11s.14-.03.21-.08c.57-.38,2.26-1.53,2.85-2.74.08-.16.11-.26.11-.32s-.02-.1-.11-.19c-1.05-.98-1.96-1.83-1.96-3.07,0-.87.39-1.65,1.18-2.45.08-.08.08-.11.08-.16"/>
  </g>
</svg>