<?xml version="1.0" encoding="UTF-8"?>
<svg xmlns="http://www.w3.org/2000/svg" viewBox="0 0 200 80">
  <defs>
    <style>
      .cls-1 {
        fill: #fff;
      }

      .cls-2 {
        fill: #055489;
      }
    </style>
  </defs>
  <rect class="cls-1" width="200" height="80"/>
  <g id="Calque_1" data-name="Calque 1">
    <rect class="cls-1" width="200" height="80"/>
    <path class="cls-2" d="M146.25,47.99l-8.57-17.01c3.72.45,7.22.12,9.89-2.63,1.1-1.13,1.66-3.2,1.38-4.73-.84-4.57-7.2-4.44-10.81-4.27l-4.13,24.33,4.43.16c.04,1.29-.23,3.16-1.14,4.16h-31.41s.45-4.19.45-4.19l2.98-.18-.45-8.97h-10.04s-5.35,8.77-5.35,8.77l2.85.52-.75,4.02h-10.41s.51-4.04.51-4.04l2.88-.53,16.88-27.97,11.09-.11,1.79,28.39h6.59s4.12-24.1,4.12-24.1l-4.27-.06.71-4.22,21.62.07c2.44,0,5.44.97,7.15,2.54,2.89,2.66,3.26,6.61,1.98,10.28-1.11,3.18-4.07,5.61-8.11,6.2l5.3,9.29,6.14.06,4.06-24.1-4.24-.16.72-4,20.88-.13c3.44-.02,7.53.59,10.29,2.56,5.75,4.11,7.11,11.42,5.07,17.88-2.28,7.19-8.2,12.06-16,12.08l-34.09.08ZM183.16,40.87c5.59-4.06,6.6-12.83,2.22-17.95-3.14-3.67-8.43-4.03-12.7-3.05l-4.03,23.9c5.11.58,10.11.29,14.51-2.9ZM108.67,31.24l-.61-11.11c-2.71,3.83-4.59,6.93-6.64,11.1h7.25Z"/>
    <path class="cls-2" d="M21.18,43.94l-.72,4.04-17.7.02.49-4.12,4.39-.22,4.02-23.9-4.15-.25c.17-1.24.43-2.81.7-3.87l15.95-.53c4.22-.14,9-.29,12.65,2.11,5,3.29,5.54,11.19,1.54,15.47s-10.39,5.51-15.93,3.64l-3.45-5.4-2.27,12.77,4.49.26ZM28.26,31.6c2.66-.68,4.31-2.77,4.7-4.83.44-2.31.05-5.28-2.48-6.34-2.93-1.23-6.48-.78-9.8-.7l-1.53,9.79c2.42,2.39,5.83,2.92,9.1,2.08Z"/>
    <path class="cls-2" d="M71.19,22.91c-4.3,6.04-5.99,17.15-.54,20.47,4.51,2.75,10.17.83,12.93-3.43.94-.4,2.81-.39,3.72-.13-2.4,6.35-8.37,9.41-14.84,9.39-7.67-.03-13.64-5.32-14.24-13.01s3.3-14.5,9.8-18.53c7.15-4.44,15.86-4.36,22.71.82l-.7,6.03c-.06.48-1.04,1.26-1.46,1.33-2.48.37-.28-5.36-6.07-6.88-4.13-1.08-8.79.4-11.31,3.95Z"/>
    <path class="cls-2" d="M55.47,47.97h-17.82s.52-4.09.52-4.09l4.37-.23,4.02-23.8-4.13-.37.67-4.11h17.71c-.11,1.37-.32,3.02-.54,4.13l-4.58.29-4.07,23.9,4.55.13-.69,4.15Z"/>
    <path class="cls-2" d="M161.33,58.46l3.35-.9c.72-.19,1.2-2.45.6-2.86-.89-.6-2.81-.56-4.09-.41l-1.97,11-2.84-.17,2.31-12.94c3.38-.03,6.51-.61,9.23,1.05.84.51.58,3.12.01,3.88-.66.9-1.81,1.55-3.38,2.34l2.03,5.7c-.45.11-2.2.15-2.99.02l-2.26-6.71Z"/>
    <path class="cls-2" d="M132.74,64.94l-2.29-6.52,3.34-.86c.71-.18,1.14-2.47.56-2.91-.77-.6-2.68-.46-4-.22l-1.89,10.36c-.1.57-1.8.62-2.9.45l2.29-12.93,4.84-.19c1.36-.05,3.41.11,4.43,1.1.87.83.73,3.06.03,3.9-.76.92-1.85,1.59-3.38,2.47l1.92,5.44c-.03.4-2.74.56-2.96-.08Z"/>
    <path class="cls-2" d="M116.4,58.71l3.27-1.33c.61-.25,1.01-1.95.62-2.51-.65-.95-2.99-.82-4.16-.3l-1.8,9.94c-.14.78-1.74,1.07-2.89.59l2.13-12.7,7.11-.29c.81-.03,2.21.79,2.58,1.44,1.26,2.21-.74,4.86-3.7,5.99l1.93,5.43c-.4.53-2.86.52-3.13-.3l-1.97-5.97Z"/>
    <path class="cls-2" d="M150.71,54.36c.1-.76.38-2.04.87-2.19s1.8.03,2.41.25c-.32,2.8-.76,5.97-1.34,8.49-1.59,6.95-10.7,4.04-10.87,3.93-2.92-1.92-.32-9.59.26-12.61.84-.07,2.26.02,2.79.19-.55,3.49-1.37,6.35-1.26,9.88.03,1.08,2.57,1.56,3.48,1.26,1.09-.35,2.6-1.62,2.79-2.96l.86-6.24Z"/>
    <path class="cls-2" d="M180.48,59.58l-5.86.05-.5,3.55,5.73.11c.31,0,.83,1.02.64,1.26-.26.33-1.11.83-1.55.83l-8.35-.05,2.35-13.21h8.83c.36,0,.87.97.69,1.2-.23.3-1.06.85-1.46.85h-5.31s-.68,3.44-.68,3.44l4.89.08c.4,0,.49.85.58,1.91Z"/>
    <path class="cls-2" d="M105.86,59.62l-4.43.06-.49,3.56,6.06.06.3,1.07c.1.36-1.07,1.04-1.49,1.03l-8.39-.08,2.3-13.19h8.92c.25-.01.73.92.62,1.15-.16.34-.91.89-1.33.89l-5.51.02-.54,3.45h4.94c.31.01.81,1.03.6,1.25-.28.3-1.06.72-1.57.72Z"/>
    <path class="cls-2" d="M193.18,61.91c-.07,4.05-5.71,3.48-8.02,3.44-.33,0-1.11-1.04-.95-1.32l.61-1.07c1.34.35,3.95.75,4.82-.14,2.61-2.7-6.57-4.89-2.89-9.33,1.88-2.27,7.17-1.59,7.1-.71-.04.42-.2,1.43-.26,1.56-1.41-.25-3.71-.48-4.43.58-1.57,2.34,4.07,3.48,4.01,6.98Z"/>
    <path class="cls-2" d="M93.96,61.91c-.01,3.76-5.19,3.54-7.58,3.45-.34-.01-1.1-.49-1.24-.78-.18-.4.1-1.65.48-1.56,1.18.29,3.96.68,4.77-.17,1.94-2.07-2.46-3.81-3.62-6.19-.37-.75.1-2.91.81-3.42,2.97-2.12,7.12-1.15,7.04-.45-.05.42-.22,1.43-.26,1.57-1.38-.24-3.77-.43-4.37.57-1.53,2.54,3.99,3.46,3.98,7Z"/>
  </g>
</svg>